<svg id="Layer_1" height="512" viewBox="0 0 128 128" width="512" xmlns="http://www.w3.org/2000/svg" data-name="Layer 1"><path d="m17.95 72.355a47.34 47.34 0 0 0 43.6 43.6c54.131 4.075 60.017-65.9 17.943-69.826-11.584-1.082-12.107-12.129-11.458-15.239a7.149 7.149 0 0 0 -.884-5.046 7.393 7.393 0 0 0 -7.134-3.63 47.062 47.062 0 0 0 -42.067 50.141z" fill="#ecd5af"/><path d="m64 22.931a7.358 7.358 0 0 0 -3.983-.716 47.055 47.055 0 0 0 1.532 93.739q1.243.094 2.451.135z" fill="#f6ebd8"/><circle cx="84.558" cy="76.514" fill="#ff9e21" r="12.628"/><circle cx="58.977" cy="97.091" fill="#b30042" r="9.27"/><circle cx="35.786" cy="55.782" fill="#00b5bc" r="6.818"/><circle cx="50.729" cy="39.549" fill="#5f69e2" r="5.411"/><path d="m46.232 74.059a6.571 6.571 0 0 1 .209-9.493l58.573-53.634a3.075 3.075 0 0 1 4.251.094 3.075 3.075 0 0 1 .094 4.251l-53.634 58.573a6.571 6.571 0 0 1 -9.493.209z" fill="#9f5f4b"/><path d="m46.715 88.274a9.707 9.707 0 0 0 0-13.732c-11.677-11.677-25 6.738-18.819 18.819 0 0 2.5-3.888 8.321-2.946 2.036.33 6.676 1.685 10.498-2.141z" fill="#ffd322"/><path d="m49.033 62.192 9.066 9.065 6.079-6.638-8.506-8.506z" fill="#00b5bc"/><path d="m64 89.307a9.27 9.27 0 1 0 0 15.567z" fill="#ff415a"/><path d="m55.725 73.85 53.634-58.573a3.075 3.075 0 0 0 -.094-4.251l-63.033 63.033a6.528 6.528 0 0 0 9.493-.209z" fill="#724435"/><path d="m58.099 71.257 6.079-6.638-4.253-4.253-6.359 6.358z" fill="#0b789c"/><path d="m46.207 74.077c-.51.37-13.148 9.6-18.311 19.285 0 0 2.5-3.888 8.321-2.946 2.036.33 6.676 1.681 10.5-2.141a9.707 9.707 0 0 0 0-13.732c-.171-.169-.341-.31-.51-.466z" fill="#ff9e21"/><g fill="#500000"><path d="m84.558 87.392a1.75 1.75 0 0 0 0 3.5 14.374 14.374 0 1 0 -11.921-6.337 1.75 1.75 0 0 0 2.9-1.959 10.879 10.879 0 1 1 9.021 4.8z"/><path d="m47.957 97.091a11.02 11.02 0 1 0 11.02-11.02 11.032 11.032 0 0 0 -11.02 11.02zm18.54 0a7.52 7.52 0 1 1 -7.521-7.52 7.529 7.529 0 0 1 7.524 7.52z"/><path d="m35.786 64.35a1.75 1.75 0 0 0 0-3.5 5.068 5.068 0 1 1 5.067-5.068 1.75 1.75 0 0 0 3.5 0 8.567 8.567 0 1 0 -8.567 8.568z"/><path d="m50.73 46.709a7.161 7.161 0 1 0 -7.161-7.161 7.169 7.169 0 0 0 7.161 7.161zm0-10.822a3.661 3.661 0 1 1 -3.661 3.661 3.664 3.664 0 0 1 3.661-3.66z"/><path d="m110.5 9.789a4.82 4.82 0 0 0 -6.68-.139l-15.01 13.943a1.75 1.75 0 1 0 2.381 2.564l15-13.935a1.326 1.326 0 0 1 1.873 1.873l-43.942 47.993-5.92-5.92 13.893-12.721c.008-.007.017-.011.025-.018s.025-.028.039-.041l6.945-6.36a1.75 1.75 0 1 0 -2.363-2.581l-5.487 5.024a13.159 13.159 0 0 1 -1.507-8.224 8.88 8.88 0 0 0 -1.085-6.286 9.158 9.158 0 0 0 -8.824-4.488 48.805 48.805 0 0 0 1.579 97.227q2.3.173 4.534.173c10.274 0 19.437-2.736 26.7-8.011a39.6 39.6 0 0 0 14.919-22.042c4.492-17.175-2.31-33.806-16.54-40.442a1.75 1.75 0 1 0 -1.479 3.172c12.672 5.91 18.689 20.873 14.633 36.385-3.777 14.447-16.918 29.2-42.5 27.273a45.738 45.738 0 0 1 -33.741-19.1 1.746 1.746 0 0 0 1.427-.8c.02-.029 1.939-2.919 6.57-2.167.184.03.389.068.614.11 2.366.444 7.293 1.367 11.4-2.741a11.463 11.463 0 0 0 2.733-11.787c.062 0 .123.009.186.009h.19a8.25 8.25 0 0 0 5.954-2.7l53.634-58.573a4.816 4.816 0 0 0 -.151-6.67zm-90.8 62.445a45.147 45.147 0 0 1 40.5-48.279 5.645 5.645 0 0 1 5.443 2.771 5.389 5.389 0 0 1 .683 3.807 16.556 16.556 0 0 0 2.307 11.343l-23.37 21.4a8.25 8.25 0 0 0 -2.7 5.954c0 .177.008.352.015.527a11.08 11.08 0 0 0 -10.64 1.684 19.286 19.286 0 0 0 -6.938 18.948 44.427 44.427 0 0 1 -5.3-18.155zm25.781 14.8c-2.8 2.8-6.1 2.184-8.283 1.776-.256-.048-.489-.092-.7-.125a10.462 10.462 0 0 0 -7.93 1.615 15.761 15.761 0 0 1 5.426-16.03 8.345 8.345 0 0 1 4.857-1.7c1.943 0 4.213.8 6.626 3.208a7.97 7.97 0 0 1 .001 11.259zm8.956-14.369a4.821 4.821 0 1 1 -6.812-6.812l1.358-1.244 3.349 3.349a1.75 1.75 0 0 0 2.468-2.471l-3.24-3.24 4.055-3.713 6.137 6.137z"/><path d="m83.851 32.061a1.745 1.745 0 0 0 1.182-.459l1.05-.961a1.75 1.75 0 0 0 -2.363-2.582l-1.05.961a1.75 1.75 0 0 0 1.182 3.041z"/></g></svg>